# xmcd CD Database Entry
#
# Track frame offsets:
# 150
# 23417
# 42949
# 51727
# 62332
# 70474
# 77894
# 85294
# 90639
# 94564
#
# Disc length: 1449 seconds
#
# Revision: 2
# Processed by: cddbd v1.4PL0 Copyright (c) Steve Scherf et al.
# Submitted via: tcd 2.0b
#
DISCID=7a05a70a
DTITLE=Creative Labs Technicals - Creative Labs
DYEAR=1900
DGENRE=
TTITLE0=Data Track
TTITLE1=Aria
TTITLE2=Beethoven: 5th Symphony
TTITLE3=Mozart: Magic Flute Opera
TTITLE4=Sound Blaster
TTITLE5=Bukitimah
TTITLE6=Streetwise
TTITLE7=Gemalan
TTITLE8=Piano Jam
TTITLE9=Sketch3
EXTD=
EXTT0=
EXTT1=
EXTT2=
EXTT3=
EXTT4=
EXTT5=
EXTT6=
EXTT7=
EXTT8=
EXTT9=
PLAYORDER=
